<?xml version="1.0" standalone="no"?>
<!DOCTYPE svg PUBLIC "-//W3C//DTD SVG 20010904//EN"
 "http://www.w3.org/TR/2001/REC-SVG-20010904/DTD/svg10.dtd">
<svg version="1.0" xmlns="http://www.w3.org/2000/svg"
 width="512.000000pt" height="512.000000pt" viewBox="0 0 512.000000 512.000000"
 preserveAspectRatio="xMidYMid meet">
<metadata>
Created by potrace 1.14, written by Peter Selinger 2001-2017
</metadata>
<g transform="translate(0.000000,512.000000) scale(0.100000,-0.100000)"
fill="#000000" stroke="none">
<path d="M0 2560 l0 -2560 2560 0 2560 0 0 2560 0 2560 -2560 0 -2560 0 0
-2560z m5020 661 c15 -28 12 -96 -5 -137 -37 -90 -223 -243 -510 -421 -93 -58
-172 -108 -175 -110 -7 -6 37 -126 80 -219 45 -98 102 -184 188 -282 l64 -74
-33 -34 c-67 -69 -144 -64 -208 12 -47 57 -114 200 -156 333 -21 64 -40 124
-44 133 -4 12 -43 -53 -126 -209 -68 -127 -132 -235 -148 -249 -36 -30 -94
-46 -158 -42 l-51 3 30 41 c65 89 659 1078 678 1129 14 37 -33 10 -95 -53 -74
-75 -121 -159 -129 -228 l-5 -46 -45 5 c-62 7 -87 34 -86 96 1 64 34 120 123
203 126 119 303 185 360 134 51 -46 32 -109 -92 -298 -53 -81 -101 -157 -108
-169 l-12 -23 34 22 c161 101 395 287 514 408 50 51 93 92 97 93 4 1 12 -8 18
-18z m-1766 -5 c18 -7 44 -28 58 -46 l25 -33 -37 -37 c-97 -97 -356 -594 -436
-839 -27 -84 -31 -141 -10 -141 26 0 112 77 182 163 l69 86 22 -27 c12 -15 22
-32 23 -38 1 -46 -195 -256 -275 -294 -72 -35 -146 -34 -183 3 -26 26 -27 32
-27 120 1 88 17 154 70 288 5 14 -7 18 -76 26 l-81 9 -92 -120 c-96 -126 -211
-284 -286 -395 l-43 -64 -39 41 c-40 43 -45 63 -28 108 6 15 9 28 7 30 -1 2
-30 -11 -62 -27 -51 -26 -69 -30 -118 -27 -47 4 -63 10 -85 31 -43 43 -36 94
26 218 61 118 64 139 24 139 -60 0 -191 -111 -337 -284 -74 -87 -83 -95 -117
-95 -25 -1 -46 7 -64 23 l-28 23 -61 -33 c-174 -95 -343 -81 -391 33 -45 105
32 273 195 425 163 152 325 214 412 155 29 -19 34 -30 37 -66 10 -134 -186
-307 -405 -358 -77 -18 -84 -24 -85 -84 -3 -108 190 -54 351 97 66 62 88 91
117 152 20 43 39 84 44 92 12 25 68 52 105 52 50 0 67 -18 63 -63 -4 -41 -5
-41 62 10 70 53 137 81 198 81 66 0 90 -12 108 -55 31 -74 13 -152 -60 -265
-57 -87 -67 -120 -37 -120 26 0 147 113 209 195 25 33 47 62 49 65 3 3 13 -6
23 -20 10 -14 20 -23 22 -20 2 3 30 35 62 73 l58 67 -106 0 c-65 0 -106 4
-106 10 0 6 24 35 53 64 61 64 105 79 211 75 l71 -3 235 235 c238 239 349 337
411 363 42 19 34 18 73 2z m-2163 -19 c50 -33 61 -61 56 -142 -5 -87 -42 -168
-108 -236 -58 -60 -115 -80 -154 -55 -14 9 -30 28 -35 42 -9 23 -4 30 49 80
72 66 123 142 125 186 l1 33 -51 0 c-40 -1 -63 -8 -106 -34 -133 -81 -280
-232 -403 -416 -211 -315 -261 -584 -118 -634 37 -13 45 -13 88 3 64 25 138
87 202 171 59 77 139 223 128 233 -4 4 -63 9 -132 12 l-125 5 34 49 c51 76 77
91 156 90 51 -1 89 -10 157 -36 50 -19 98 -38 107 -41 23 -8 16 -24 -76 -181
-84 -144 -121 -230 -141 -327 -8 -41 -17 -84 -20 -97 l-6 -23 -42 23 c-29 16
-48 36 -63 66 l-20 43 -19 -21 c-10 -11 -52 -37 -92 -57 -63 -31 -83 -36 -146
-37 -288 -2 -343 327 -117 711 164 278 418 513 643 593 78 28 185 26 228 -3z
m2940 13 c133 -13 239 -30 239 -38 0 -12 -96 -73 -136 -87 -23 -9 -81 -14
-142 -15 l-103 0 -19 -42 c-245 -564 -342 -769 -413 -876 -55 -82 -55 -82 -28
-83 14 0 89 -6 166 -13 l140 -11 -50 -38 c-105 -78 -115 -80 -365 -89 -124 -4
-262 -14 -307 -21 -46 -8 -83 -10 -83 -5 0 18 49 104 72 125 36 34 95 54 173
60 l72 6 42 66 c46 70 465 910 459 917 -6 5 -204 -14 -269 -26 -81 -16 -82
-15 -63 23 21 42 71 94 109 115 75 40 286 53 506 32z"/>
<path d="M2933 2868 c-34 -35 -104 -112 -157 -173 l-95 -110 42 -12 c70 -21
74 -19 116 66 32 63 86 161 158 284 10 17 -7 3 -64 -55z"/>
<path d="M1314 2509 c-49 -32 -188 -168 -179 -177 11 -11 160 86 206 134 74
79 62 99 -27 43z"/>
</g>
</svg>
